<svg width="168" height="26" viewBox="0 0 168 26" fill="none" xmlns="http://www.w3.org/2000/svg">
<path d="M17.9824 0.0715446C16.6541 0.258005 14.7967 0.959967 14.6671 1.33288C14.6239 1.4316 14.8399 1.76064 15.207 2.16646C15.531 2.53938 15.963 3.08779 16.1574 3.38393C16.5569 3.98718 16.5785 3.98718 17.8636 3.6362C18.9111 3.35102 20.1098 3.44974 21.0601 3.89943C22.4856 4.57946 23.5871 5.85177 24.0299 7.33247C24.6022 9.24093 23.9327 11.972 22.248 14.6044C21.978 15.0211 21.7513 15.4489 21.7513 15.5476C21.7513 15.9754 23.4683 18.0593 23.8247 18.0593C24.0731 18.0593 25.3797 16.0522 26.1249 14.4947C27.248 12.1585 27.6367 10.5242 27.5504 8.51703C27.4964 7.10214 27.3776 6.49889 26.9996 5.54466C25.5417 1.87032 21.7189 -0.443958 17.9824 0.0715446Z" fill="#42BD26"/>
<path d="M33.1443 0.159328C31.6756 0.247074 30.1422 0.751608 28.9975 1.49744C28.6303 1.73874 28.3063 1.93617 28.2631 1.93617C28.2307 1.93617 27.9067 1.74971 27.5396 1.51938C26.4705 0.828386 24.6454 0.192232 23.7599 0.181265C23.4791 0.181265 23.5115 0.225138 24.1379 0.630959C25.6173 1.60712 26.9132 3.14267 27.7016 4.83176C28.0795 5.65438 28.1659 5.77503 28.4035 5.77503C28.7923 5.77503 29.0622 5.6105 29.8182 4.8866C30.9197 3.84463 32.1184 3.373 33.6518 3.36203C35.1529 3.36203 36.3516 3.91044 37.4531 5.1279C39.3105 7.16798 39.3645 9.67969 37.6151 13.2224C36.3084 15.8767 34.073 18.52 31.4704 20.4833C30.099 21.5143 28.4899 22.5563 28.2415 22.5563C28.0255 22.5563 26.8268 21.8653 25.7469 21.1195C23.3172 19.4414 21.2113 16.9735 19.8831 14.2753C19.2135 12.9043 18.9435 12.2353 17.896 9.33968C16.5138 5.51179 15.8334 4.18464 14.5267 2.76975C13.4252 1.58519 11.6218 0.598055 10.0451 0.301914C9.01921 0.115456 7.32376 0.148359 6.40584 0.38966C3.30651 1.2013 1.0603 3.51558 0.174783 6.817C-0.0411984 7.62864 -0.0627965 9.83324 0.142385 10.7655C1.31948 16.1838 5.84429 21.7556 11.9242 25.2435C13.0257 25.8797 13.6412 26.0881 14.0516 25.9674C14.9047 25.7151 17.0969 24.388 18.76 23.1267C20.3366 21.9202 20.2826 22.0627 19.4187 21.0537C19.0083 20.582 18.5656 20.0446 18.436 19.8691C18.2632 19.6168 18.166 19.562 18.0472 19.6497C17.9608 19.7046 17.4101 20.1323 16.8161 20.593C15.2611 21.7885 13.922 22.5892 13.6088 22.5124C13.1552 22.4028 10.4879 20.5162 9.27838 19.4633C6.96739 17.4451 5.34753 15.3283 4.15963 12.7837C3.4037 11.1714 3.14452 10.1513 3.14452 8.79127C3.14452 7.12411 3.64128 5.96148 4.82917 4.8208C5.88748 3.80076 6.94579 3.36203 8.36046 3.36203C9.95872 3.36203 11.1142 3.8556 12.2589 5.01822C13.1552 5.92858 13.8356 7.2996 14.9479 10.4365C16.5353 14.9005 17.4317 16.7542 19.1271 19.0684C21.017 21.6569 23.7059 23.8835 26.9348 25.5177C28.1335 26.1319 28.4791 26.1319 29.6022 25.5067C32.14 24.0919 34.1702 22.5673 36.1248 20.582C38.9542 17.7084 40.8656 14.5605 41.6971 11.4017C42.0535 10.0197 42.1075 7.7822 41.7943 6.66345C40.7036 2.63813 37.0535 -0.103909 33.1443 0.159328Z" fill="#E73B3B"/>
<path d="M51.2784 18.5V6.86364H53.0341V11.9205H58.8352V6.86364H60.5966V18.5H58.8352V13.4261H53.0341V18.5H51.2784ZM62.5143 18.5V17.2273L66.4518 13.1477C66.8723 12.7045 67.2189 12.3163 67.4916 11.983C67.7681 11.6458 67.9745 11.3258 68.1109 11.0227C68.2473 10.7197 68.3155 10.3977 68.3155 10.0568C68.3155 9.67045 68.2245 9.33712 68.0427 9.05682C67.8609 8.77273 67.6128 8.55492 67.2984 8.40341C66.984 8.24811 66.6298 8.17045 66.2359 8.17045C65.8192 8.17045 65.4556 8.25568 65.145 8.42614C64.8344 8.59659 64.5958 8.83712 64.4291 9.14773C64.2624 9.45833 64.1791 9.82197 64.1791 10.2386H62.503C62.503 9.5303 62.6658 8.91098 62.9916 8.38068C63.3173 7.85038 63.7643 7.43939 64.3325 7.14773C64.9007 6.85227 65.5465 6.70455 66.27 6.70455C67.0011 6.70455 67.645 6.85038 68.2018 7.14205C68.7624 7.42992 69.1999 7.82386 69.5143 8.32386C69.8287 8.82008 69.9859 9.38068 69.9859 10.0057C69.9859 10.4375 69.9045 10.8598 69.7416 11.2727C69.5825 11.6856 69.3041 12.1458 68.9064 12.6534C68.5086 13.1572 67.9556 13.7689 67.2473 14.4886L64.9348 16.9091V16.9943H70.1734V18.5H62.5143ZM72.0059 18.5V6.86364H73.7616V11.9205H79.5627V6.86364H81.3241V18.5H79.5627V13.4261H73.7616V18.5H72.0059ZM87.1553 18.5V6.86364H94.3712V8.375H88.911V11.9205H93.8541V13.4261H88.911V18.5H87.1553ZM98.9494 18.6761C98.1312 18.6761 97.4172 18.4886 96.8074 18.1136C96.1975 17.7386 95.7241 17.214 95.3869 16.5398C95.0498 15.8655 94.8812 15.0777 94.8812 14.1761C94.8812 13.2708 95.0498 12.4792 95.3869 11.8011C95.7241 11.1231 96.1975 10.5966 96.8074 10.2216C97.4172 9.84659 98.1312 9.65909 98.9494 9.65909C99.7676 9.65909 100.482 9.84659 101.091 10.2216C101.701 10.5966 102.175 11.1231 102.512 11.8011C102.849 12.4792 103.018 13.2708 103.018 14.1761C103.018 15.0777 102.849 15.8655 102.512 16.5398C102.175 17.214 101.701 17.7386 101.091 18.1136C100.482 18.4886 99.7676 18.6761 98.9494 18.6761ZM98.9551 17.25C99.4854 17.25 99.9248 17.1098 100.273 16.8295C100.622 16.5492 100.879 16.1761 101.046 15.7102C101.216 15.2443 101.302 14.7311 101.302 14.1705C101.302 13.6136 101.216 13.1023 101.046 12.6364C100.879 12.1667 100.622 11.7898 100.273 11.5057C99.9248 11.2216 99.4854 11.0795 98.9551 11.0795C98.421 11.0795 97.9778 11.2216 97.6256 11.5057C97.2771 11.7898 97.0176 12.1667 96.8472 12.6364C96.6805 13.1023 96.5972 13.6136 96.5972 14.1705C96.5972 14.7311 96.6805 15.2443 96.8472 15.7102C97.0176 16.1761 97.2771 16.5492 97.6256 16.8295C97.9778 17.1098 98.421 17.25 98.9551 17.25ZM109.962 14.8807V9.77273H111.667V18.5H109.996V16.9886H109.906C109.705 17.4545 109.383 17.8428 108.94 18.1534C108.5 18.4602 107.953 18.6136 107.298 18.6136C106.737 18.6136 106.241 18.4905 105.809 18.2443C105.381 17.9943 105.044 17.625 104.798 17.1364C104.555 16.6477 104.434 16.0436 104.434 15.3239V9.77273H106.133V15.1193C106.133 15.714 106.298 16.1875 106.627 16.5398C106.957 16.892 107.385 17.0682 107.911 17.0682C108.229 17.0682 108.546 16.9886 108.86 16.8295C109.178 16.6705 109.441 16.4299 109.65 16.108C109.862 15.786 109.966 15.3769 109.962 14.8807ZM115.168 13.3182V18.5H113.47V9.77273H115.1V11.1932H115.208C115.409 10.7311 115.723 10.3598 116.151 10.0795C116.583 9.79924 117.127 9.65909 117.782 9.65909C118.377 9.65909 118.898 9.78409 119.345 10.0341C119.792 10.2803 120.138 10.6477 120.384 11.1364C120.631 11.625 120.754 12.2292 120.754 12.9489V18.5H119.055V13.1534C119.055 12.5208 118.89 12.0265 118.56 11.6705C118.231 11.3106 117.778 11.1307 117.202 11.1307C116.809 11.1307 116.458 11.2159 116.151 11.3864C115.848 11.5568 115.608 11.8068 115.43 12.1364C115.256 12.4621 115.168 12.8561 115.168 13.3182ZM125.819 18.6705C125.115 18.6705 124.486 18.4905 123.933 18.1307C123.383 17.767 122.952 17.25 122.637 16.5795C122.327 15.9053 122.171 15.0966 122.171 14.1534C122.171 13.2102 122.329 12.4034 122.643 11.733C122.961 11.0625 123.397 10.5492 123.95 10.1932C124.503 9.83712 125.13 9.65909 125.83 9.65909C126.372 9.65909 126.808 9.75 127.137 9.93182C127.471 10.1098 127.728 10.3182 127.91 10.5568C128.096 10.7955 128.24 11.0057 128.342 11.1875H128.444V6.86364H130.143V18.5H128.484V17.142H128.342C128.24 17.3277 128.092 17.5398 127.899 17.7784C127.709 18.017 127.448 18.2254 127.115 18.4034C126.781 18.5814 126.349 18.6705 125.819 18.6705ZM126.194 17.2216C126.683 17.2216 127.096 17.0928 127.433 16.8352C127.774 16.5739 128.031 16.2121 128.205 15.75C128.383 15.2879 128.473 14.75 128.473 14.1364C128.473 13.5303 128.385 13 128.211 12.5455C128.037 12.0909 127.781 11.7367 127.444 11.483C127.107 11.2292 126.69 11.1023 126.194 11.1023C125.683 11.1023 125.257 11.2348 124.916 11.5C124.575 11.7652 124.317 12.1269 124.143 12.5852C123.973 13.0436 123.887 13.5606 123.887 14.1364C123.887 14.7197 123.974 15.2443 124.149 15.7102C124.323 16.1761 124.58 16.5455 124.921 16.8182C125.266 17.0871 125.69 17.2216 126.194 17.2216ZM134.627 18.6932C134.074 18.6932 133.574 18.5909 133.127 18.3864C132.68 18.178 132.326 17.8769 132.065 17.483C131.807 17.089 131.679 16.6061 131.679 16.0341C131.679 15.5417 131.773 15.1364 131.963 14.8182C132.152 14.5 132.408 14.2481 132.73 14.0625C133.052 13.8769 133.412 13.7367 133.809 13.642C134.207 13.5473 134.612 13.4754 135.025 13.4261C135.548 13.3655 135.972 13.3163 136.298 13.2784C136.624 13.2367 136.86 13.1705 137.008 13.0795C137.156 12.9886 137.23 12.8409 137.23 12.6364V12.5966C137.23 12.1004 137.09 11.7159 136.809 11.4432C136.533 11.1705 136.12 11.0341 135.571 11.0341C134.999 11.0341 134.548 11.161 134.218 11.4148C133.893 11.6648 133.667 11.9432 133.542 12.25L131.946 11.8864C132.135 11.3561 132.412 10.928 132.775 10.6023C133.143 10.2727 133.565 10.0341 134.042 9.88636C134.519 9.73485 135.021 9.65909 135.548 9.65909C135.896 9.65909 136.266 9.70076 136.656 9.78409C137.05 9.86364 137.417 10.0114 137.758 10.2273C138.103 10.4432 138.385 10.7519 138.605 11.1534C138.824 11.5511 138.934 12.0682 138.934 12.7045V18.5H137.275V17.3068H137.207C137.097 17.5265 136.932 17.7424 136.713 17.9545C136.493 18.1667 136.211 18.3428 135.866 18.483C135.521 18.6231 135.109 18.6932 134.627 18.6932ZM134.997 17.3295C135.466 17.3295 135.868 17.2367 136.201 17.0511C136.538 16.8655 136.794 16.6231 136.968 16.3239C137.146 16.0208 137.235 15.697 137.235 15.3523V14.2273C137.175 14.2879 137.057 14.3447 136.883 14.3977C136.713 14.447 136.518 14.4905 136.298 14.5284C136.078 14.5625 135.864 14.5947 135.656 14.625C135.448 14.6515 135.273 14.6742 135.133 14.6932C134.804 14.7348 134.502 14.8049 134.23 14.9034C133.961 15.0019 133.745 15.1439 133.582 15.3295C133.423 15.5114 133.343 15.7538 133.343 16.0568C133.343 16.4773 133.499 16.7955 133.809 17.0114C134.12 17.2235 134.516 17.3295 134.997 17.3295ZM144.791 9.77273V11.1364H140.024V9.77273H144.791ZM141.302 7.68182H143.001V15.9375C143.001 16.267 143.05 16.5152 143.149 16.6818C143.247 16.8447 143.374 16.9564 143.53 17.017C143.689 17.0739 143.861 17.1023 144.047 17.1023C144.183 17.1023 144.302 17.0928 144.405 17.0739C144.507 17.0549 144.586 17.0398 144.643 17.0284L144.95 18.4318C144.852 18.4697 144.711 18.5076 144.53 18.5455C144.348 18.5871 144.12 18.6098 143.848 18.6136C143.401 18.6212 142.984 18.5417 142.598 18.375C142.211 18.2083 141.899 17.9508 141.66 17.6023C141.422 17.2538 141.302 16.8163 141.302 16.2898V7.68182ZM146.19 18.5V9.77273H147.889V18.5H146.19ZM147.048 8.42614C146.753 8.42614 146.499 8.32765 146.287 8.13068C146.078 7.92992 145.974 7.69129 145.974 7.41477C145.974 7.13447 146.078 6.89583 146.287 6.69886C146.499 6.49811 146.753 6.39773 147.048 6.39773C147.344 6.39773 147.595 6.49811 147.804 6.69886C148.016 6.89583 148.122 7.13447 148.122 7.41477C148.122 7.69129 148.016 7.92992 147.804 8.13068C147.595 8.32765 147.344 8.42614 147.048 8.42614ZM153.371 18.6761C152.552 18.6761 151.838 18.4886 151.229 18.1136C150.619 17.7386 150.145 17.214 149.808 16.5398C149.471 15.8655 149.302 15.0777 149.302 14.1761C149.302 13.2708 149.471 12.4792 149.808 11.8011C150.145 11.1231 150.619 10.5966 151.229 10.2216C151.838 9.84659 152.552 9.65909 153.371 9.65909C154.189 9.65909 154.903 9.84659 155.513 10.2216C156.123 10.5966 156.596 11.1231 156.933 11.8011C157.27 12.4792 157.439 13.2708 157.439 14.1761C157.439 15.0777 157.27 15.8655 156.933 16.5398C156.596 17.214 156.123 17.7386 155.513 18.1136C154.903 18.4886 154.189 18.6761 153.371 18.6761ZM153.376 17.25C153.907 17.25 154.346 17.1098 154.695 16.8295C155.043 16.5492 155.301 16.1761 155.467 15.7102C155.638 15.2443 155.723 14.7311 155.723 14.1705C155.723 13.6136 155.638 13.1023 155.467 12.6364C155.301 12.1667 155.043 11.7898 154.695 11.5057C154.346 11.2216 153.907 11.0795 153.376 11.0795C152.842 11.0795 152.399 11.2216 152.047 11.5057C151.698 11.7898 151.439 12.1667 151.268 12.6364C151.102 13.1023 151.018 13.6136 151.018 14.1705C151.018 14.7311 151.102 15.2443 151.268 15.7102C151.439 16.1761 151.698 16.5492 152.047 16.8295C152.399 17.1098 152.842 17.25 153.376 17.25ZM160.554 13.3182V18.5H158.855V9.77273H160.486V11.1932H160.594C160.795 10.7311 161.109 10.3598 161.537 10.0795C161.969 9.79924 162.512 9.65909 163.168 9.65909C163.762 9.65909 164.283 9.78409 164.73 10.0341C165.177 10.2803 165.524 10.6477 165.77 11.1364C166.016 11.625 166.139 12.2292 166.139 12.9489V18.5H164.44V13.1534C164.44 12.5208 164.276 12.0265 163.946 11.6705C163.617 11.3106 163.164 11.1307 162.588 11.1307C162.194 11.1307 161.844 11.2159 161.537 11.3864C161.234 11.5568 160.993 11.8068 160.815 12.1364C160.641 12.4621 160.554 12.8561 160.554 13.3182Z" fill="#121217"/>
</svg>
